<svg width="172" height="68" viewBox="0 0 172 68" fill="none" xmlns="http://www.w3.org/2000/svg">
<circle cx="33" cy="34" r="33" fill="#8F00FF"/>
<path d="M22.6925 56.942C23.1572 56.942 23.6765 56.819 24.2505 56.573C24.8245 56.327 25.3848 56.0127 25.9315 55.63C26.4782 55.2473 26.9838 54.8373 27.4485 54.4C27.9405 53.99 28.3232 53.5937 28.5965 53.211C28.8152 52.9377 29.0065 52.7053 29.1705 52.514C29.3345 52.3227 29.5122 52.0767 29.7035 51.776C29.8402 51.5027 29.9905 51.243 30.1545 50.997C30.3185 50.7783 30.4552 50.5323 30.5645 50.259C30.8925 49.6303 31.1248 49.0563 31.2615 48.537C31.4255 48.045 31.5212 47.5667 31.5485 47.102C31.6032 46.6373 31.6168 46.159 31.5895 45.667C31.5622 45.2023 31.5212 44.683 31.4665 44.109C31.2478 44.1637 31.0838 44.232 30.9745 44.314C30.8925 44.4233 30.7558 44.5463 30.5645 44.683C30.4278 44.8197 30.3048 44.9153 30.1955 44.97C30.0862 45.052 29.9632 45.1477 29.8265 45.257L27.6125 47.225C27.0658 47.7443 26.6012 48.1817 26.2185 48.537C25.8358 48.8923 25.4668 49.234 25.1115 49.562C24.7835 49.89 24.4418 50.2453 24.0865 50.628C23.7585 51.038 23.3622 51.5573 22.8975 52.186C22.7608 52.3773 22.5832 52.6233 22.3645 52.924C22.1732 53.2247 21.9818 53.5527 21.7905 53.908C21.5992 54.2633 21.4352 54.6187 21.2985 54.974C21.1618 55.3293 21.0935 55.6437 21.0935 55.917C21.0935 56.409 21.1892 56.696 21.3805 56.778C21.5992 56.8873 21.9545 56.942 22.4465 56.942H22.6925ZM11.4585 33.121C11.4585 32.0277 11.6088 30.8797 11.9095 29.677C12.2102 28.4743 12.5928 27.2853 13.0575 26.11C13.5495 24.9073 14.0962 23.7457 14.6975 22.625C15.2988 21.5043 15.9002 20.4793 16.5015 19.55C16.7748 19.058 17.1028 18.5387 17.4855 17.992C17.8682 17.418 18.2782 16.8577 18.7155 16.311C19.1802 15.737 19.6312 15.1903 20.0685 14.671C20.5332 14.1517 20.9568 13.687 21.3395 13.277C22.7062 11.9377 24.1412 10.776 25.6445 9.792C27.1752 8.78067 28.9382 8.275 30.9335 8.275C31.9175 8.357 32.7648 8.67133 33.4755 9.218C34.1862 9.76467 34.7738 10.4617 35.2385 11.309C35.7032 12.1563 36.0448 13.0993 36.2635 14.138C36.5095 15.1767 36.6325 16.229 36.6325 17.295C36.6325 18.935 36.4685 20.575 36.1405 22.215C35.8125 23.855 35.4572 25.413 35.0745 26.889C34.9378 27.5177 34.7875 28.078 34.6235 28.57C34.4868 29.0347 34.1862 29.267 33.7215 29.267C33.3935 29.267 33.2158 29.0073 33.1885 28.488C33.1885 27.9687 33.2295 27.381 33.3115 26.725C33.4208 26.069 33.5575 25.4403 33.7215 24.839C33.8855 24.2103 33.9948 23.8003 34.0495 23.609C34.1862 22.7343 34.3228 21.805 34.4595 20.821C34.5962 19.8097 34.6645 18.812 34.6645 17.828C34.6918 16.8167 34.6235 15.819 34.4595 14.835C34.3228 13.851 34.0358 12.949 33.5985 12.129C33.1885 11.3363 32.6965 10.7897 32.1225 10.489C31.5485 10.161 30.9335 9.997 30.2775 9.997C29.7035 9.997 29.1158 10.1063 28.5145 10.325C27.9405 10.5163 27.3802 10.7623 26.8335 11.063C26.4508 11.309 26.0135 11.596 25.5215 11.924C25.0568 12.2247 24.6605 12.539 24.3325 12.867C24.1138 13.0583 23.9225 13.2223 23.7585 13.359C23.5945 13.4683 23.4168 13.6323 23.2255 13.851L18.3875 19.632C17.8408 20.4793 17.4035 21.19 17.0755 21.764C16.7748 22.3107 16.4332 22.9393 16.0505 23.65C15.7498 24.1147 15.4492 24.675 15.1485 25.331C14.8478 25.987 14.5608 26.684 14.2875 27.422C14.0142 28.1327 13.7682 28.8297 13.5495 29.513C13.3582 30.1963 13.2215 30.7977 13.1395 31.317C13.0575 31.9457 12.9892 32.5607 12.9345 33.162C12.9072 33.7633 13.0028 34.3647 13.2215 34.966C13.4128 35.4853 13.7545 35.8817 14.2465 36.155C14.7385 36.4283 15.2852 36.6333 15.8865 36.77C16.5152 36.8793 17.1575 36.9477 17.8135 36.975C18.4968 37.0023 19.1118 37.0297 19.6585 37.057C20.3965 37.0843 21.0662 37.1117 21.6675 37.139C22.2962 37.139 22.9112 37.1663 23.5125 37.221C24.1138 37.2483 24.7152 37.3167 25.3165 37.426C25.9452 37.508 26.6148 37.672 27.3255 37.918C27.7355 38.0547 28.1865 38.246 28.6785 38.492C29.1705 38.738 29.6352 39.025 30.0725 39.353C30.5372 39.7083 30.9472 40.0773 31.3025 40.46C31.6578 40.87 31.8902 41.2937 31.9995 41.731C32.4642 41.4303 32.9698 41.0477 33.5165 40.583C34.0905 40.1457 34.6782 39.6673 35.2795 39.148C35.8808 38.656 36.4685 38.164 37.0425 37.672C37.6165 37.18 38.1358 36.7563 38.6005 36.401L41.7575 33.613C42.0308 33.3397 42.2905 33.1073 42.5365 32.916C42.7825 32.7247 43.0422 32.4923 43.3155 32.219C43.7802 31.727 44.1218 31.399 44.3405 31.235C44.5865 31.071 44.7915 30.989 44.9555 30.989C45.0648 30.989 45.1605 31.0027 45.2425 31.03C45.3245 31.0573 45.4202 31.0847 45.5295 31.112C45.5295 31.3853 45.5568 31.5493 45.6115 31.604C45.6662 31.6587 45.6798 31.7133 45.6525 31.768C45.6525 31.7953 45.5568 31.891 45.3655 32.055C45.2015 32.1917 44.8872 32.4923 44.4225 32.957C43.5205 33.8317 42.6868 34.597 41.9215 35.253C41.1835 35.909 40.3908 36.647 39.5435 37.467L36.9195 39.599C36.7008 39.763 36.3728 40.0227 35.9355 40.378C35.4982 40.7333 35.0472 41.0887 34.5825 41.444C34.1178 41.8267 33.6942 42.182 33.3115 42.51C32.9562 42.838 32.7375 43.0567 32.6555 43.166C32.7648 43.6033 32.8605 44.0407 32.9425 44.478C33.0245 44.9427 33.0655 45.4347 33.0655 45.954C33.0655 47.4027 32.7238 48.8513 32.0405 50.3C31.3572 51.776 30.4962 53.1017 29.4575 54.277C28.4462 55.4797 27.3392 56.45 26.1365 57.188C24.9612 57.926 23.8678 58.295 22.8565 58.295C22.5832 58.295 22.2552 58.2677 21.8725 58.213C21.5172 58.1857 21.1892 58.1037 20.8885 57.967C20.5878 57.8577 20.3282 57.68 20.1095 57.434C19.8908 57.188 19.7815 56.8463 19.7815 56.409C19.7815 55.3977 19.9455 54.523 20.2735 53.785C20.6015 53.047 21.0798 52.268 21.7085 51.448C22.6105 50.1907 23.5398 49.0973 24.4965 48.168C25.4805 47.2387 26.5328 46.2957 27.6535 45.339L30.9335 42.633C30.1955 41.239 29.2662 40.2687 28.1455 39.722C27.0522 39.2027 25.6855 38.8473 24.0455 38.656L20.7245 38.41C19.4125 38.3827 18.2098 38.3553 17.1165 38.328C16.0232 38.3007 15.0118 38.1093 14.0825 37.754C13.2078 37.426 12.5518 36.8657 12.1145 36.073C11.6772 35.2803 11.4585 34.2963 11.4585 33.121ZM44.0903 53.129C44.637 53.129 45.1837 52.8557 45.7303 52.309C46.277 51.7623 46.7007 51.2567 47.0013 50.792C47.466 49.9993 47.835 49.1657 48.1083 48.291C48.409 47.4437 48.6413 46.569 48.8053 45.667C48.9693 44.7923 49.0923 43.9177 49.1743 43.043C49.2837 42.1683 49.393 41.3073 49.5023 40.46L49.6663 38.082C49.5297 38.1367 49.3383 38.2733 49.0923 38.492C48.8737 38.738 48.6413 38.9977 48.3953 39.271C48.1493 39.5717 47.917 39.8587 47.6983 40.132C47.507 40.4327 47.3703 40.6377 47.2883 40.747C47.0697 41.0477 46.7963 41.4167 46.4683 41.854C46.1403 42.2913 45.8123 42.756 45.4843 43.248C45.1563 43.7673 44.842 44.273 44.5413 44.765C44.2407 45.257 44.0083 45.6943 43.8443 46.077C43.735 46.3503 43.53 46.8697 43.2293 47.635C42.9287 48.4003 42.71 49.193 42.5733 50.013C42.4367 50.833 42.4503 51.5573 42.6143 52.186C42.7783 52.8147 43.2703 53.129 44.0903 53.129ZM43.6393 34.515C43.6393 33.859 43.8443 33.08 44.2543 32.178C44.6643 31.2487 45.1837 30.374 45.8123 29.554C46.441 28.734 47.138 28.037 47.9033 27.463C48.6687 26.889 49.4203 26.602 50.1583 26.602C50.9237 26.602 51.4567 26.8753 51.7573 27.422C52.0853 27.9687 52.0717 28.5153 51.7163 29.062C51.4703 29.0347 51.2927 28.9527 51.1833 28.816C51.074 28.6793 50.9783 28.529 50.8963 28.365C50.8143 28.201 50.7187 28.0507 50.6093 27.914C50.5 27.7773 50.336 27.709 50.1173 27.709C49.5433 27.709 48.942 27.996 48.3133 28.57C47.6847 29.1167 47.097 29.7863 46.5503 30.579C46.031 31.3717 45.5937 32.1917 45.2383 33.039C44.9103 33.8863 44.7463 34.597 44.7463 35.171C45.2383 35.0343 45.6757 34.761 46.0583 34.351C46.441 33.9137 46.769 33.5583 47.0423 33.285C47.3157 32.9843 47.6163 32.6017 47.9443 32.137C48.2997 31.6723 48.6003 31.2623 48.8463 30.907C48.983 30.6883 49.1607 30.415 49.3793 30.087C49.598 29.759 49.8713 29.595 50.1993 29.595C50.5 29.595 50.7323 29.7863 50.8963 30.169C51.0603 30.5243 51.1697 30.9617 51.2243 31.481C51.279 31.973 51.3063 32.4923 51.3063 33.039C51.3063 33.5857 51.3063 34.0367 51.3063 34.392C51.525 34.3373 51.8667 34.1323 52.3313 33.777C52.796 33.3943 53.288 32.9843 53.8073 32.547C54.354 32.1097 54.887 31.727 55.4063 31.399C55.953 31.0437 56.404 30.866 56.7593 30.866C56.9233 30.866 57.0327 30.9617 57.0873 31.153C57.142 31.317 57.1283 31.481 57.0463 31.645C57.019 31.6723 56.814 31.8363 56.4313 32.137C56.076 32.4103 55.6523 32.7383 55.1603 33.121C54.6683 33.4763 54.1763 33.8453 53.6843 34.228C53.1923 34.6107 52.8233 34.925 52.5773 35.171C52.3587 35.3623 52.1263 35.5263 51.8803 35.663C51.6343 35.7997 51.484 36.0457 51.4293 36.401C51.3473 37.1663 51.3063 37.8907 51.3063 38.574C51.3063 39.394 51.238 40.3233 51.1013 41.362C50.992 42.428 50.828 43.494 50.6093 44.56C50.3907 45.626 50.131 46.6373 49.8303 47.594C49.557 48.5507 49.2563 49.357 48.9283 50.013C48.1357 51.571 47.302 52.6643 46.4273 53.293C45.58 53.949 44.801 54.277 44.0903 54.277C43.325 54.277 42.6963 53.99 42.2043 53.416C41.7123 52.8693 41.4663 52.186 41.4663 51.366C41.4663 50.71 41.4937 50.1223 41.5483 49.603C41.603 49.111 41.6987 48.6327 41.8353 48.168C41.972 47.7307 42.136 47.2797 42.3273 46.815C42.5187 46.3503 42.7647 45.831 43.0653 45.257C43.8853 43.5897 44.801 42.0727 45.8123 40.706C46.851 39.3393 47.999 37.9863 49.2563 36.647C49.6117 36.2643 49.762 35.6357 49.7073 34.761C49.68 33.859 49.6663 32.9843 49.6663 32.137C49.4477 32.219 49.1333 32.5607 48.7233 33.162C48.3407 33.736 47.917 34.228 47.4523 34.638C47.1517 34.9387 46.7553 35.3077 46.2633 35.745C45.7713 36.1823 45.2657 36.401 44.7463 36.401C44.4457 36.401 44.2133 36.3327 44.0493 36.196C43.8853 36.0593 43.776 35.8953 43.7213 35.704C43.6667 35.5127 43.6393 35.3077 43.6393 35.089C43.6393 34.8703 43.6393 34.679 43.6393 34.515Z" fill="white"/>
<path d="M81.8789 27.6641C81.8789 28.4388 81.6836 29.1745 81.293 29.8711C80.9023 30.5612 80.2936 31.1211 79.4668 31.5508C78.6465 31.9805 77.5853 32.1953 76.2832 32.1953C75.6322 32.1953 75.0592 32.166 74.5645 32.1074C74.0762 32.0488 73.6204 31.9544 73.1973 31.8242C72.7741 31.6875 72.3346 31.5117 71.8789 31.2969V27.8594C72.6536 28.25 73.4349 28.5495 74.2227 28.7578C75.0104 28.9596 75.7233 29.0605 76.3613 29.0605C76.7454 29.0605 77.0579 29.015 77.2988 28.9238C77.5462 28.8327 77.7285 28.709 77.8457 28.5527C77.9629 28.39 78.0215 28.2044 78.0215 27.9961C78.0215 27.7487 77.9336 27.5404 77.7578 27.3711C77.5885 27.1953 77.3151 27.013 76.9375 26.8242C76.5599 26.6354 76.0618 26.401 75.4434 26.1211C74.916 25.8737 74.4375 25.6198 74.0078 25.3594C73.5846 25.099 73.2201 24.8027 72.9141 24.4707C72.6146 24.1322 72.3835 23.7383 72.2207 23.2891C72.0579 22.8398 71.9766 22.3092 71.9766 21.6973C71.9766 20.7793 72.2012 20.0111 72.6504 19.3926C73.1061 18.7676 73.7376 18.2988 74.5449 17.9863C75.3587 17.6738 76.2962 17.5176 77.3574 17.5176C78.2884 17.5176 79.125 17.6217 79.8672 17.8301C80.6159 18.0384 81.2865 18.276 81.8789 18.543L80.6973 21.5215C80.0853 21.2415 79.4831 21.0202 78.8906 20.8574C78.2982 20.6882 77.748 20.6035 77.2402 20.6035C76.9082 20.6035 76.6348 20.6458 76.4199 20.7305C76.2116 20.8086 76.0553 20.916 75.9512 21.0527C75.8535 21.1895 75.8047 21.3457 75.8047 21.5215C75.8047 21.7428 75.8893 21.9414 76.0586 22.1172C76.2344 22.293 76.5241 22.485 76.9277 22.6934C77.3379 22.8952 77.8945 23.1589 78.5977 23.4844C79.2943 23.7969 79.8867 24.1354 80.375 24.5C80.8633 24.8581 81.2344 25.291 81.4883 25.7988C81.7487 26.3001 81.8789 26.9219 81.8789 27.6641ZM99.3223 32H95.4453V26.1797H90.9629V32H87.0859V17.7227H90.9629V23.0156H95.4453V17.7227H99.3223V32ZM105.418 32V17.7227H109.295V32H105.418ZM127.725 17.7227L123.047 32H118.506L113.848 17.7227H118.184L120.127 24.959C120.199 25.2324 120.28 25.584 120.371 26.0137C120.469 26.4368 120.557 26.86 120.635 27.2832C120.719 27.7064 120.771 28.0514 120.791 28.3184C120.817 28.0514 120.866 27.7096 120.938 27.293C121.009 26.8763 121.087 26.4596 121.172 26.043C121.263 25.6198 121.348 25.2715 121.426 24.998L123.408 17.7227H127.725ZM136.955 17.7227C138.251 17.7227 139.328 17.8822 140.188 18.2012C141.047 18.5137 141.691 18.9824 142.121 19.6074C142.557 20.2324 142.775 21.0104 142.775 21.9414C142.775 22.5208 142.678 23.0482 142.482 23.5234C142.287 23.9987 142.007 24.4251 141.643 24.8027C141.285 25.1738 140.855 25.4993 140.354 25.7793L144.514 32H140.139L137.111 26.8047H136.135V32H132.277V17.7227H136.955ZM136.896 20.6426H136.135V23.9043H136.857C137.45 23.9043 137.935 23.7741 138.312 23.5137C138.69 23.2533 138.879 22.7878 138.879 22.1172C138.879 21.6549 138.723 21.2936 138.41 21.0332C138.098 20.7728 137.593 20.6426 136.896 20.6426ZM157.572 32L156.869 29.3242H152.23L151.508 32H147.27L151.928 17.6641H157.074L161.791 32H157.572ZM156.068 26.1602L155.453 23.8164C155.388 23.5625 155.294 23.2012 155.17 22.7324C155.046 22.2572 154.923 21.7689 154.799 21.2676C154.682 20.7598 154.59 20.3431 154.525 20.0176C154.467 20.3431 154.382 20.7467 154.271 21.2285C154.167 21.7038 154.057 22.1758 153.939 22.6445C153.829 23.1133 153.731 23.5039 153.646 23.8164L153.031 26.1602H156.068ZM165.221 36.4824C164.785 36.4824 164.404 36.4596 164.078 36.4141C163.746 36.375 163.46 36.3294 163.219 36.2773V33.2793C163.427 33.3184 163.648 33.3607 163.883 33.4062C164.117 33.4583 164.371 33.4844 164.645 33.4844C165.107 33.4844 165.465 33.39 165.719 33.2012C165.979 33.0124 166.161 32.7292 166.266 32.3516C166.37 31.974 166.422 31.502 166.422 30.9355V17.7227H170.299V30.6035C170.299 32.0358 170.084 33.1816 169.654 34.041C169.225 34.9004 168.629 35.5221 167.867 35.9062C167.105 36.2904 166.223 36.4824 165.221 36.4824ZM78.2754 43.6406H84.4375V51.3359C83.7018 51.5898 82.8587 51.7982 81.9082 51.9609C80.9577 52.1172 79.9616 52.1953 78.9199 52.1953C77.5462 52.1953 76.3418 51.9284 75.3066 51.3945C74.2715 50.8607 73.4642 50.0501 72.8848 48.9629C72.3053 47.8691 72.0156 46.4889 72.0156 44.8223C72.0156 43.3249 72.3021 42.0326 72.875 40.9453C73.4479 39.8516 74.291 39.0085 75.4043 38.416C76.5241 37.8171 77.8945 37.5176 79.5156 37.5176C80.4076 37.5176 81.2539 37.6022 82.0547 37.7715C82.8555 37.9408 83.5521 38.1556 84.1445 38.416L82.9238 41.4434C82.4095 41.1895 81.8757 41.0007 81.3223 40.877C80.7689 40.7467 80.1732 40.6816 79.5352 40.6816C78.6823 40.6816 77.9954 40.8737 77.4746 41.2578C76.9603 41.6419 76.5859 42.1562 76.3516 42.8008C76.1172 43.4388 76 44.1452 76 44.9199C76 45.8053 76.1237 46.554 76.3711 47.166C76.625 47.7715 76.9928 48.2337 77.4746 48.5527C77.9629 48.8652 78.5521 49.0215 79.2422 49.0215C79.4701 49.0215 79.7467 49.0052 80.0723 48.9727C80.4043 48.9401 80.6549 48.901 80.8242 48.8555V46.6191H78.2754V43.6406ZM102.584 52H98.707V46.1797H94.2246V52H90.3477V37.7227H94.2246V43.0156H98.707V37.7227H102.584V52ZM120.818 37.7227V46.3164C120.818 47.5143 120.59 48.556 120.135 49.4414C119.679 50.3203 118.995 51.0007 118.084 51.4824C117.173 51.9577 116.03 52.1953 114.656 52.1953C112.69 52.1953 111.189 51.6908 110.154 50.6816C109.119 49.6725 108.602 48.2467 108.602 46.4043V37.7227H112.479V46.1016C112.479 47.1107 112.667 47.8431 113.045 48.2988C113.423 48.7546 113.979 48.9824 114.715 48.9824C115.242 48.9824 115.672 48.8848 116.004 48.6895C116.336 48.4876 116.577 48.1719 116.727 47.7422C116.883 47.3125 116.961 46.7591 116.961 46.082V37.7227H120.818ZM126.816 52V37.7227H130.674V48.8848H136.172V52H126.816ZM149.934 52H141.457V37.7227H149.934V40.8184H145.314V43.0645H149.592V46.1602H145.314V48.8555H149.934V52Z" fill="black"/>
</svg>
